<svg width="30" height="31" viewBox="0 0 30 31" fill="none" xmlns="http://www.w3.org/2000/svg">
<path d="M15 0C6.74999 0 0 6.98745 0 15.5934C0 23.3745 5.48999 29.8328 12.66 31V20.1064H8.84999V15.5934H12.66V12.1541C12.66 8.24799 14.895 6.1004 18.33 6.1004C19.965 6.1004 21.675 6.39609 21.675 6.39609V10.24H19.785C17.925 10.24 17.34 11.4383 17.34 12.6677V15.5934H21.51L20.835 20.1064H17.34V31C20.8746 30.4208 24.0933 28.5498 26.4149 25.7245C28.7364 22.8992 30.008 19.306 30 15.5934C30 6.98745 23.25 0 15 0Z" fill="white" fill-opacity="0.34"/>
</svg>
