<svg width="29" height="29" viewBox="0 0 29 29" fill="none" xmlns="http://www.w3.org/2000/svg">
<path d="M14.5 0C12.5958 0 10.7103 0.384365 8.95109 1.13115C7.19187 1.87793 5.5934 2.97251 4.24695 4.35239C1.52767 7.13918 0 10.9189 0 14.86C0 21.4281 4.1615 27.0006 9.918 28.977C10.643 29.0959 10.875 28.6352 10.875 28.234C10.875 27.8922 10.875 26.956 10.875 25.7226C6.8585 26.6142 6.003 23.7314 6.003 23.7314C5.336 22.0076 4.3935 21.547 4.3935 21.547C3.074 20.6257 4.495 20.6554 4.495 20.6554C5.945 20.7594 6.7135 22.186 6.7135 22.186C7.975 24.4447 10.1065 23.776 10.933 23.4193C11.0635 22.4534 11.4405 21.7996 11.8465 21.4281C8.6275 21.0566 5.249 19.7786 5.249 14.117C5.249 12.4675 5.8 11.145 6.7425 10.0899C6.5975 9.71843 6.09 8.173 6.8875 6.1669C6.8875 6.1669 8.1055 5.76568 10.875 7.68262C12.0205 7.3557 13.2675 7.19224 14.5 7.19224C15.7325 7.19224 16.9795 7.3557 18.125 7.68262C20.8945 5.76568 22.1125 6.1669 22.1125 6.1669C22.91 8.173 22.4025 9.71843 22.2575 10.0899C23.2 11.145 23.751 12.4675 23.751 14.117C23.751 19.7935 20.358 21.0417 17.1245 21.4132C17.6465 21.8739 18.125 22.7804 18.125 24.1623C18.125 26.1536 18.125 27.7585 18.125 28.234C18.125 28.6352 18.357 29.1107 19.0965 28.977C24.853 26.9857 29 21.4281 29 14.86C29 12.9085 28.6249 10.9762 27.8963 9.17332C27.1676 7.37042 26.0995 5.73227 24.753 4.35239C23.4066 2.97251 21.8081 1.87793 20.0489 1.13115C18.2897 0.384365 16.4042 0 14.5 0Z" fill="#3A3A3A" fill-opacity="0.34"/>
</svg>
