<svg width="24" height="25" viewBox="0 0 24 25" fill="none" xmlns="http://www.w3.org/2000/svg">
<path d="M16.2368 19.0476C16.9147 19.0476 17.4474 19.5714 17.4474 20.2381C17.4474 20.9048 16.9147 21.4286 16.2368 21.4286C15.5589 21.4286 15.0263 20.9048 15.0263 20.2381C15.0263 19.5714 15.5589 19.0476 16.2368 19.0476ZM16.2368 15.4762C12.9321 15.4762 10.1116 17.4524 8.97368 20.2381C10.1116 23.0238 12.9321 25 16.2368 25C19.5416 25 22.3621 23.0238 23.5 20.2381C22.3621 17.4524 19.5416 15.4762 16.2368 15.4762ZM16.2368 23.2143C15.4342 23.2143 14.6645 22.9007 14.0969 22.3426C13.5294 21.7844 13.2105 21.0274 13.2105 20.2381C13.2105 19.4488 13.5294 18.6918 14.0969 18.1336C14.6645 17.5755 15.4342 17.2619 16.2368 17.2619C17.0395 17.2619 17.8092 17.5755 18.3768 18.1336C18.9443 18.6918 19.2632 19.4488 19.2632 20.2381C19.2632 21.0274 18.9443 21.7844 18.3768 22.3426C17.8092 22.9007 17.0395 23.2143 16.2368 23.2143ZM6.72211 21.131L6.37105 20.2381L6.72211 19.3571C8.28368 15.5476 12 13.0952 16.2368 13.0952C17.5079 13.0952 18.7305 13.3452 19.8684 13.7619V7.14286L12.6053 0H2.92105C1.57737 0 0.5 1.05952 0.5 2.38095V21.4286C0.5 22.06 0.755074 22.6656 1.20911 23.1122C1.66315 23.5587 2.27895 23.8095 2.92105 23.8095H8.36842C7.70263 23.0238 7.1579 22.119 6.72211 21.131ZM11.3947 1.78571L18.0526 8.33333H11.3947V1.78571Z" fill="#3A3A3A"/>
</svg>
