<svg width="29" height="25" viewBox="0 0 29 25" fill="none" xmlns="http://www.w3.org/2000/svg">
<path d="M29 2.94118C27.9326 3.45588 26.782 3.79412 25.5899 3.95588C26.8098 3.17647 27.7524 1.94118 28.196 0.455882C27.0454 1.19118 25.7701 1.70588 24.4254 2C23.3303 0.735294 21.7916 0 20.0449 0C16.7873 0 14.1257 2.82353 14.1257 6.30882C14.1257 6.80882 14.1812 7.29412 14.2782 7.75C9.34321 7.48529 4.94885 4.97059 2.0239 1.16176C1.51099 2.08824 1.21989 3.17647 1.21989 4.32353C1.21989 6.51471 2.25956 8.45588 3.86759 9.55882C2.88337 9.55882 1.96845 9.26471 1.16444 8.82353C1.16444 8.82353 1.16444 8.82353 1.16444 8.86765C1.16444 11.9265 3.21606 14.4853 5.93308 15.0588C5.43404 15.2059 4.90727 15.2794 4.36664 15.2794C3.99235 15.2794 3.61807 15.2353 3.25765 15.1618C4.00622 17.6471 6.1826 19.5 8.80258 19.5441C6.77868 21.25 4.21415 22.25 1.41396 22.25C0.942639 22.25 0.471319 22.2206 0 22.1618C2.63384 23.9559 5.76673 25 9.12142 25C20.0449 25 26.0473 15.3824 26.0473 7.04412C26.0473 6.76471 26.0473 6.5 26.0335 6.22059C27.1979 5.33823 28.196 4.22059 29 2.94118Z" fill="white" fill-opacity="0.34"/>
</svg>
